<?xml version="1.0" encoding="iso-8859-1"?>
<!-- Generator: Adobe Illustrator 16.0.0, SVG Export Plug-In . SVG Version: 6.00 Build 0)  -->
<!DOCTYPE svg PUBLIC "-//W3C//DTD SVG 1.1//EN" "http://www.w3.org/Graphics/SVG/1.1/DTD/svg11.dtd">
<svg version="1.1" id="Capa_1" xmlns="http://www.w3.org/2000/svg" xmlns:xlink="http://www.w3.org/1999/xlink" x="0px" y="0px"
	 width="402.85px" height="402.851px" viewBox="0 0 402.85 402.851" style="enable-background:new 0 0 402.85 402.851;"
	 xml:space="preserve">
<g>
	<g>
		<path d="M97.158,402.851c0.717,0,1.434-0.275,1.984-0.822l50.721-50.715c1.093-1.084,1.093-2.878,0-3.962l-46.721-46.718
			l48.767-48.769c1.086-1.084,1.086-2.867,0-3.961l-46.537-46.523l49.002-49.002c1.092-1.095,1.092-2.871,0-3.962l-46.715-46.72
			l48.767-48.766c1.091-1.092,1.091-2.871,0-3.962l-48.15-48.148c-1.092-1.095-2.871-1.095-3.961,0c-1.092,1.09-1.092,2.867,0,3.961
			l46.167,46.165l-48.739,48.736c-1.09,1.094-1.09,2.87,0,3.961c0.08,0.08,0.175,0.107,0.257,0.17
			c0.096,0.134,0.153,0.285,0.271,0.402l46.166,46.172l-48.737,48.736c-0.696,0.695-0.898,1.653-0.715,2.545
			c-0.016,0.738,0.25,1.482,0.808,2.041l46.167,46.183l-48.739,48.723c-1.085,1.096-1.085,2.879,0,3.963
			c0.08,0.087,0.17,0.114,0.254,0.164c0.094,0.131,0.145,0.284,0.273,0.405l46.166,46.161l-48.731,48.728
			c-1.092,1.095-1.092,2.884,0,3.962C95.716,402.585,96.441,402.851,97.158,402.851z"/>
		<path d="M172.782,402.851c0.717,0,1.433-0.275,1.982-0.822l50.718-50.715c1.083-1.084,1.083-2.878,0-3.962l-46.712-46.718
			l48.771-48.769c1.078-1.084,1.078-2.867,0-3.961L181,201.381l49.007-49.002c1.088-1.095,1.088-2.871,0-3.962l-46.715-46.714
			l48.769-48.767c1.093-1.091,1.093-2.87,0-3.961L183.908,0.832c-1.09-1.094-2.875-1.094-3.961,0c-1.091,1.091-1.091,2.867,0,3.961
			l46.165,46.165l-48.731,48.737c-1.092,1.094-1.092,2.87,0,3.961c0.074,0.074,0.161,0.101,0.246,0.164
			c0.096,0.134,0.146,0.29,0.274,0.408l46.171,46.173l-48.735,48.736c-0.689,0.69-0.892,1.643-0.713,2.534
			c-0.018,0.738,0.241,1.494,0.806,2.06l46.184,46.178l-48.766,48.721c-1.085,1.084-1.085,2.878,0,3.962
			c0.08,0.076,0.17,0.115,0.248,0.153c0.101,0.131,0.152,0.295,0.28,0.405l46.164,46.174l-48.734,48.727
			c-1.095,1.094-1.095,2.872,0,3.961C171.339,402.585,172.056,402.851,172.782,402.851z"/>
		<path d="M248.409,402.851c0.729,0,1.441-0.275,1.983-0.822l50.726-50.715c1.093-1.084,1.093-2.878,0-3.962l-46.72-46.718
			l48.765-48.769c1.094-1.084,1.094-2.867,0-3.961l-46.532-46.523l49.007-49.002c1.07-1.095,1.07-2.871,0-3.962l-46.732-46.72
			l48.769-48.766c1.087-1.092,1.087-2.871,0-3.962L259.517,0.821c-1.094-1.095-2.883-1.095-3.961,0c-1.093,1.09-1.093,2.867,0,3.961
			l46.155,46.165l-48.728,48.736c-1.094,1.094-1.094,2.87,0,3.961c0.079,0.08,0.159,0.107,0.263,0.17
			c0.109,0.134,0.139,0.285,0.265,0.402l46.173,46.172l-48.746,48.736c-0.69,0.695-0.876,1.653-0.71,2.545
			c-0.013,0.738,0.249,1.482,0.818,2.041l46.173,46.183l-48.742,48.723c-1.083,1.096-1.083,2.879,0,3.963
			c0.075,0.087,0.164,0.114,0.249,0.164c0.102,0.131,0.134,0.284,0.274,0.405l46.173,46.161l-48.731,48.728
			c-1.097,1.095-1.097,2.884,0,3.962C246.975,402.585,247.688,402.851,248.409,402.851z"/>
	</g>
</g>
<g>
</g>
<g>
</g>
<g>
</g>
<g>
</g>
<g>
</g>
<g>
</g>
<g>
</g>
<g>
</g>
<g>
</g>
<g>
</g>
<g>
</g>
<g>
</g>
<g>
</g>
<g>
</g>
<g>
</g>
</svg>
